# xmcd
#
# Track frame offsets: 
#        150
#        12904
#        24309
#        36834
#        48561
#        60493
#        70992
#        83246
#        94334
#        106457
#        120865
#        133997
#        143976
#        157314
#        169601
#        180670
#        191429
#        203006
#        212524
#        225097
#
# Disc length: 3153 seconds
#
# Revision: 0
# Processed by: cddbd v1.5.2PL0 Copyright (c) Steve Scherf et al.
# Submitted via: ExactAudioCopy v0.99pb4
#
DISCID=0e0c4f14
DTITLE=T-Bone Walker - 40 Prime Cuts CD2
DYEAR=1952
DGENRE=Blues
TTITLE0=West Sida Baby
TTITLE1=Strollin' With Bones
TTITLE2=Glamour Girl
TTITLE3=The Hustle Is On
TTITLE4=Evil Hearted Woman
TTITLE5=I Walked Away
TTITLE6=Alimony Blues
TTITLE7=Welcome Blues
TTITLE8=Tell Me What's The Reason
TTITLE9=Trough With Women
TTITLE10=Blue Mood
TTITLE11=Party Girl
TTITLE12=High Society
TTITLE13=Rail Road Station Blues
TTITLE14=Vida Lee
TTITLE15=Pony Tail
TTITLE16=Wanderin' Heart
TTITLE17=Teenage Baby
TTITLE18=Papa Ain't Salty
TTITLE19=Play On Little Girl
EXTD=
EXTT0=
EXTT1=
EXTT2=
EXTT3=
EXTT4=
EXTT5=
EXTT6=
EXTT7=
EXTT8=
EXTT9=
EXTT10=
EXTT11=
EXTT12=
EXTT13=
EXTT14=
EXTT15=
EXTT16=
EXTT17=
EXTT18=
EXTT19=
PLAYORDER=
